G04 MADE WITH FRITZING*
G04 WWW.FRITZING.ORG*
G04 DOUBLE SIDED*
G04 HOLES PLATED*
G04 CONTOUR ON CENTER OF CONTOUR VECTOR*
%ASAXBY*%
%FSLAX23Y23*%
%MOIN*%
%OFA0B0*%
%SFA1.0B1.0*%
%ADD10C,0.087778*%
%ADD11C,0.075000*%
%ADD12C,0.085000*%
%ADD13C,0.096614*%
%ADD14C,0.092000*%
%ADD15C,0.093307*%
%ADD16R,0.092000X0.092000*%
%ADD17R,0.093307X0.093307*%
%ADD18R,0.001000X0.001000*%
%LNMASK1*%
G90*
G70*
G54D10*
X1100Y1099D03*
X1100Y999D03*
X1100Y899D03*
X1100Y799D03*
X1100Y699D03*
X1100Y599D03*
X1100Y499D03*
X1100Y399D03*
X2000Y399D03*
X2000Y499D03*
X2000Y599D03*
X2000Y699D03*
X2000Y799D03*
X2000Y899D03*
X2000Y999D03*
X2000Y1099D03*
G54D11*
X900Y399D03*
X900Y202D03*
X900Y399D03*
X900Y202D03*
X900Y399D03*
X900Y202D03*
G54D12*
X1400Y1199D03*
X1400Y799D03*
X900Y699D03*
X900Y1099D03*
G54D11*
X1300Y299D03*
X1300Y199D03*
X1300Y299D03*
X1300Y199D03*
G54D13*
X100Y1299D03*
X100Y99D03*
X2100Y99D03*
X2100Y1299D03*
G54D14*
X700Y199D03*
X700Y299D03*
X700Y399D03*
G54D15*
X400Y999D03*
X400Y1199D03*
X400Y599D03*
X400Y799D03*
X400Y199D03*
X400Y399D03*
G54D16*
X700Y199D03*
G54D17*
X400Y999D03*
X400Y599D03*
X400Y199D03*
G54D18*
X692Y938D02*
X707Y938D01*
X688Y937D02*
X711Y937D01*
X685Y936D02*
X714Y936D01*
X683Y935D02*
X716Y935D01*
X681Y934D02*
X718Y934D01*
X679Y933D02*
X720Y933D01*
X678Y932D02*
X721Y932D01*
X676Y931D02*
X723Y931D01*
X675Y930D02*
X724Y930D01*
X674Y929D02*
X725Y929D01*
X672Y928D02*
X726Y928D01*
X671Y927D02*
X727Y927D01*
X670Y926D02*
X728Y926D01*
X670Y925D02*
X729Y925D01*
X669Y924D02*
X730Y924D01*
X668Y923D02*
X731Y923D01*
X667Y922D02*
X731Y922D01*
X667Y921D02*
X732Y921D01*
X666Y920D02*
X733Y920D01*
X665Y919D02*
X733Y919D01*
X665Y918D02*
X734Y918D01*
X664Y917D02*
X734Y917D01*
X664Y916D02*
X735Y916D01*
X663Y915D02*
X735Y915D01*
X663Y914D02*
X736Y914D01*
X662Y913D02*
X736Y913D01*
X662Y912D02*
X737Y912D01*
X662Y911D02*
X737Y911D01*
X662Y910D02*
X737Y910D01*
X661Y909D02*
X737Y909D01*
X661Y908D02*
X738Y908D01*
X661Y907D02*
X738Y907D01*
X661Y906D02*
X738Y906D01*
X660Y905D02*
X738Y905D01*
X660Y904D02*
X738Y904D01*
X660Y903D02*
X739Y903D01*
X660Y902D02*
X739Y902D01*
X660Y901D02*
X739Y901D01*
X660Y900D02*
X739Y900D01*
X660Y899D02*
X739Y899D01*
X660Y898D02*
X739Y898D01*
X660Y897D02*
X739Y897D01*
X660Y896D02*
X739Y896D01*
X660Y895D02*
X739Y895D01*
X660Y894D02*
X738Y894D01*
X660Y893D02*
X738Y893D01*
X661Y892D02*
X738Y892D01*
X661Y891D02*
X738Y891D01*
X661Y890D02*
X738Y890D01*
X661Y889D02*
X737Y889D01*
X661Y888D02*
X737Y888D01*
X662Y887D02*
X737Y887D01*
X662Y886D02*
X737Y886D01*
X662Y885D02*
X736Y885D01*
X663Y884D02*
X736Y884D01*
X663Y883D02*
X736Y883D01*
X664Y882D02*
X735Y882D01*
X664Y881D02*
X735Y881D01*
X665Y880D02*
X734Y880D01*
X665Y879D02*
X733Y879D01*
X666Y878D02*
X733Y878D01*
X666Y877D02*
X732Y877D01*
X667Y876D02*
X731Y876D01*
X668Y875D02*
X731Y875D01*
X669Y874D02*
X730Y874D01*
X669Y873D02*
X729Y873D01*
X670Y872D02*
X728Y872D01*
X671Y871D02*
X727Y871D01*
X672Y870D02*
X726Y870D01*
X673Y869D02*
X725Y869D01*
X675Y868D02*
X724Y868D01*
X676Y867D02*
X723Y867D01*
X677Y866D02*
X721Y866D01*
X679Y865D02*
X720Y865D01*
X680Y864D02*
X718Y864D01*
X682Y863D02*
X716Y863D01*
X685Y862D02*
X714Y862D01*
X687Y861D02*
X711Y861D01*
X691Y860D02*
X708Y860D01*
X699Y859D02*
X700Y859D01*
X692Y838D02*
X707Y838D01*
X688Y837D02*
X711Y837D01*
X685Y836D02*
X714Y836D01*
X683Y835D02*
X716Y835D01*
X681Y834D02*
X718Y834D01*
X679Y833D02*
X720Y833D01*
X677Y832D02*
X721Y832D01*
X676Y831D02*
X723Y831D01*
X675Y830D02*
X724Y830D01*
X674Y829D02*
X725Y829D01*
X672Y828D02*
X726Y828D01*
X671Y827D02*
X727Y827D01*
X670Y826D02*
X728Y826D01*
X670Y825D02*
X729Y825D01*
X669Y824D02*
X730Y824D01*
X668Y823D02*
X731Y823D01*
X667Y822D02*
X731Y822D01*
X667Y821D02*
X732Y821D01*
X666Y820D02*
X733Y820D01*
X665Y819D02*
X733Y819D01*
X665Y818D02*
X734Y818D01*
X664Y817D02*
X734Y817D01*
X664Y816D02*
X735Y816D01*
X663Y815D02*
X735Y815D01*
X663Y814D02*
X736Y814D01*
X662Y813D02*
X736Y813D01*
X662Y812D02*
X737Y812D01*
X662Y811D02*
X737Y811D01*
X661Y810D02*
X737Y810D01*
X661Y809D02*
X737Y809D01*
X661Y808D02*
X738Y808D01*
X661Y807D02*
X738Y807D01*
X661Y806D02*
X738Y806D01*
X660Y805D02*
X738Y805D01*
X660Y804D02*
X738Y804D01*
X660Y803D02*
X739Y803D01*
X660Y802D02*
X739Y802D01*
X660Y801D02*
X739Y801D01*
X660Y800D02*
X739Y800D01*
X660Y799D02*
X739Y799D01*
X660Y798D02*
X739Y798D01*
X660Y797D02*
X739Y797D01*
X660Y796D02*
X739Y796D01*
X660Y795D02*
X739Y795D01*
X660Y794D02*
X738Y794D01*
X660Y793D02*
X738Y793D01*
X661Y792D02*
X738Y792D01*
X661Y791D02*
X738Y791D01*
X661Y790D02*
X738Y790D01*
X661Y789D02*
X737Y789D01*
X661Y788D02*
X737Y788D01*
X662Y787D02*
X737Y787D01*
X662Y786D02*
X737Y786D01*
X662Y785D02*
X736Y785D01*
X663Y784D02*
X736Y784D01*
X663Y783D02*
X736Y783D01*
X664Y782D02*
X735Y782D01*
X664Y781D02*
X735Y781D01*
X665Y780D02*
X734Y780D01*
X665Y779D02*
X733Y779D01*
X666Y778D02*
X733Y778D01*
X667Y777D02*
X732Y777D01*
X667Y776D02*
X731Y776D01*
X668Y775D02*
X731Y775D01*
X669Y774D02*
X730Y774D01*
X669Y773D02*
X729Y773D01*
X670Y772D02*
X728Y772D01*
X671Y771D02*
X727Y771D01*
X672Y770D02*
X726Y770D01*
X673Y769D02*
X725Y769D01*
X675Y768D02*
X724Y768D01*
X676Y767D02*
X723Y767D01*
X677Y766D02*
X721Y766D01*
X679Y765D02*
X720Y765D01*
X681Y764D02*
X718Y764D01*
X682Y763D02*
X716Y763D01*
X685Y762D02*
X714Y762D01*
X687Y761D02*
X711Y761D01*
X691Y760D02*
X708Y760D01*
X699Y759D02*
X700Y759D01*
X691Y738D02*
X707Y738D01*
X688Y737D02*
X711Y737D01*
X685Y736D02*
X714Y736D01*
X683Y735D02*
X716Y735D01*
X681Y734D02*
X718Y734D01*
X679Y733D02*
X720Y733D01*
X677Y732D02*
X721Y732D01*
X676Y731D02*
X723Y731D01*
X675Y730D02*
X724Y730D01*
X674Y729D02*
X725Y729D01*
X672Y728D02*
X726Y728D01*
X671Y727D02*
X727Y727D01*
X670Y726D02*
X728Y726D01*
X670Y725D02*
X729Y725D01*
X669Y724D02*
X730Y724D01*
X668Y723D02*
X731Y723D01*
X667Y722D02*
X731Y722D01*
X667Y721D02*
X732Y721D01*
X666Y720D02*
X733Y720D01*
X665Y719D02*
X733Y719D01*
X665Y718D02*
X734Y718D01*
X664Y717D02*
X734Y717D01*
X664Y716D02*
X735Y716D01*
X663Y715D02*
X735Y715D01*
X663Y714D02*
X736Y714D01*
X662Y713D02*
X736Y713D01*
X662Y712D02*
X737Y712D01*
X662Y711D02*
X737Y711D01*
X661Y710D02*
X737Y710D01*
X661Y709D02*
X737Y709D01*
X661Y708D02*
X738Y708D01*
X661Y707D02*
X738Y707D01*
X661Y706D02*
X738Y706D01*
X660Y705D02*
X738Y705D01*
X660Y704D02*
X738Y704D01*
X660Y703D02*
X739Y703D01*
X660Y702D02*
X739Y702D01*
X660Y701D02*
X739Y701D01*
X660Y700D02*
X739Y700D01*
X660Y699D02*
X739Y699D01*
X660Y698D02*
X739Y698D01*
X660Y697D02*
X739Y697D01*
X660Y696D02*
X739Y696D01*
X660Y695D02*
X739Y695D01*
X660Y694D02*
X738Y694D01*
X660Y693D02*
X738Y693D01*
X661Y692D02*
X738Y692D01*
X661Y691D02*
X738Y691D01*
X661Y690D02*
X738Y690D01*
X661Y689D02*
X737Y689D01*
X661Y688D02*
X737Y688D01*
X662Y687D02*
X737Y687D01*
X662Y686D02*
X737Y686D01*
X662Y685D02*
X736Y685D01*
X663Y684D02*
X736Y684D01*
X663Y683D02*
X735Y683D01*
X664Y682D02*
X735Y682D01*
X664Y681D02*
X735Y681D01*
X665Y680D02*
X734Y680D01*
X665Y679D02*
X733Y679D01*
X666Y678D02*
X733Y678D01*
X667Y677D02*
X732Y677D01*
X667Y676D02*
X731Y676D01*
X668Y675D02*
X731Y675D01*
X669Y674D02*
X730Y674D01*
X670Y673D02*
X729Y673D01*
X670Y672D02*
X728Y672D01*
X671Y671D02*
X727Y671D01*
X672Y670D02*
X726Y670D01*
X673Y669D02*
X725Y669D01*
X675Y668D02*
X724Y668D01*
X676Y667D02*
X723Y667D01*
X677Y666D02*
X721Y666D01*
X679Y665D02*
X720Y665D01*
X681Y664D02*
X718Y664D01*
X682Y663D02*
X716Y663D01*
X685Y662D02*
X714Y662D01*
X687Y661D02*
X711Y661D01*
X691Y660D02*
X707Y660D01*
X1262Y336D02*
X1336Y336D01*
X1262Y335D02*
X1336Y335D01*
X1262Y334D02*
X1336Y334D01*
X1262Y333D02*
X1336Y333D01*
X1262Y332D02*
X1336Y332D01*
X1262Y331D02*
X1336Y331D01*
X1262Y330D02*
X1336Y330D01*
X1262Y329D02*
X1336Y329D01*
X1262Y328D02*
X1336Y328D01*
X1262Y327D02*
X1336Y327D01*
X1262Y326D02*
X1336Y326D01*
X1262Y325D02*
X1336Y325D01*
X1262Y324D02*
X1336Y324D01*
X1262Y323D02*
X1336Y323D01*
X1262Y322D02*
X1336Y322D01*
X1262Y321D02*
X1336Y321D01*
X1262Y320D02*
X1336Y320D01*
X1262Y319D02*
X1336Y319D01*
X1262Y318D02*
X1336Y318D01*
X1262Y317D02*
X1336Y317D01*
X1262Y316D02*
X1336Y316D01*
X1262Y315D02*
X1336Y315D01*
X1262Y314D02*
X1336Y314D01*
X1262Y313D02*
X1336Y313D01*
X1262Y312D02*
X1336Y312D01*
X1262Y311D02*
X1336Y311D01*
X1262Y310D02*
X1336Y310D01*
X1262Y309D02*
X1336Y309D01*
X1262Y308D02*
X1336Y308D01*
X1262Y307D02*
X1295Y307D01*
X1303Y307D02*
X1336Y307D01*
X1262Y306D02*
X1293Y306D01*
X1305Y306D02*
X1336Y306D01*
X1262Y305D02*
X1292Y305D01*
X1306Y305D02*
X1336Y305D01*
X1262Y304D02*
X1291Y304D01*
X1307Y304D02*
X1336Y304D01*
X1262Y303D02*
X1291Y303D01*
X1308Y303D02*
X1336Y303D01*
X1262Y302D02*
X1290Y302D01*
X1308Y302D02*
X1336Y302D01*
X1262Y301D02*
X1290Y301D01*
X1308Y301D02*
X1336Y301D01*
X1262Y300D02*
X1290Y300D01*
X1308Y300D02*
X1336Y300D01*
X1262Y299D02*
X1290Y299D01*
X1308Y299D02*
X1336Y299D01*
X1262Y298D02*
X1290Y298D01*
X1308Y298D02*
X1336Y298D01*
X1262Y297D02*
X1290Y297D01*
X1308Y297D02*
X1336Y297D01*
X1262Y296D02*
X1290Y296D01*
X1308Y296D02*
X1336Y296D01*
X1262Y295D02*
X1291Y295D01*
X1307Y295D02*
X1336Y295D01*
X1262Y294D02*
X1291Y294D01*
X1307Y294D02*
X1336Y294D01*
X1262Y293D02*
X1292Y293D01*
X1306Y293D02*
X1336Y293D01*
X1262Y292D02*
X1293Y292D01*
X1305Y292D02*
X1336Y292D01*
X1262Y291D02*
X1295Y291D01*
X1303Y291D02*
X1336Y291D01*
X1262Y290D02*
X1336Y290D01*
X1262Y289D02*
X1336Y289D01*
X1262Y288D02*
X1336Y288D01*
X1262Y287D02*
X1336Y287D01*
X1262Y286D02*
X1336Y286D01*
X1262Y285D02*
X1336Y285D01*
X1262Y284D02*
X1336Y284D01*
X1262Y283D02*
X1336Y283D01*
X1262Y282D02*
X1336Y282D01*
X1262Y281D02*
X1336Y281D01*
X1262Y280D02*
X1336Y280D01*
X1262Y279D02*
X1336Y279D01*
X1262Y278D02*
X1336Y278D01*
X1262Y277D02*
X1336Y277D01*
X1262Y276D02*
X1336Y276D01*
X1262Y275D02*
X1336Y275D01*
X1262Y274D02*
X1336Y274D01*
X1262Y273D02*
X1336Y273D01*
X1262Y272D02*
X1336Y272D01*
X1262Y271D02*
X1336Y271D01*
X1262Y270D02*
X1336Y270D01*
X1262Y269D02*
X1336Y269D01*
X1262Y268D02*
X1336Y268D01*
X1262Y267D02*
X1336Y267D01*
X1262Y266D02*
X1336Y266D01*
X1262Y265D02*
X1336Y265D01*
X1262Y264D02*
X1336Y264D01*
X1262Y263D02*
X1336Y263D01*
X1262Y262D02*
X1336Y262D01*
D02*
G04 End of Mask1*
M02*